<svg width="28" height="18" viewBox="0 0 28 18" fill="none" xmlns="http://www.w3.org/2000/svg">
<rect x="0.5" y="1.5" width="27" height="15" rx="1.5" stroke="#FDE021"/>
<path d="M9.19417 14V11.494H3.16017V9.576L9.41817 3.92H11.3362V9.338H12.6802V11.494H11.3362V14H9.19417ZM6.64617 9.338H9.19417V7.266L6.64617 9.338ZM16.1587 14C15.5894 14 15.0994 13.7993 14.6887 13.398C14.2874 12.9873 14.0867 12.4973 14.0867 11.928V5.992C14.0867 5.42267 14.2874 4.93733 14.6887 4.536C15.0994 4.12533 15.5894 3.92 16.1587 3.92H22.0807C22.6501 3.92 23.1401 4.12533 23.5507 4.536C23.9614 4.93733 24.1667 5.42267 24.1667 5.992V6.944H21.9687V6.566C21.9687 6.258 21.9687 6.104 21.9687 6.104C21.9687 6.104 21.8147 6.104 21.5067 6.104H16.7187C16.4107 6.104 16.2567 6.104 16.2567 6.104C16.2567 6.104 16.2567 6.258 16.2567 6.566V11.354C16.2567 11.662 16.2567 11.816 16.2567 11.816C16.2567 11.816 16.4107 11.816 16.7187 11.816H21.5067C21.8147 11.816 21.9687 11.816 21.9687 11.816C21.9687 11.816 21.9687 11.662 21.9687 11.354V10.304H19.7847V8.12H24.1667V11.928C24.1667 12.4973 23.9614 12.9873 23.5507 13.398C23.1401 13.7993 22.6501 14 22.0807 14H16.1587Z" fill="#FDE021"/>
</svg>
