<svg width="28" height="18" viewBox="0 0 28 18" fill="none" xmlns="http://www.w3.org/2000/svg">
<rect x="0.5" y="1.5" width="27" height="15" rx="1.5" stroke="#FDE021"/>
<path d="M5.22091 14C4.66091 14 4.18024 13.7993 3.77891 13.398C3.37757 12.9967 3.17691 12.5207 3.17691 11.97V11.186H5.31891V11.396C5.31891 11.704 5.31891 11.858 5.31891 11.858C5.31891 11.858 5.47291 11.858 5.78091 11.858H10.4709C10.7789 11.858 10.9329 11.858 10.9329 11.858C10.9329 11.858 10.9329 11.704 10.9329 11.396V10.43C10.9329 10.122 10.9329 9.968 10.9329 9.968C10.9329 9.968 10.7789 9.968 10.4709 9.968H3.17691V3.92H13.0749V6.062H5.78091C5.47291 6.062 5.31891 6.062 5.31891 6.062C5.31891 6.062 5.31891 6.216 5.31891 6.524V7.35C5.31891 7.658 5.31891 7.812 5.31891 7.812C5.31891 7.812 5.47291 7.812 5.78091 7.812H11.0309C11.5909 7.812 12.0716 8.01267 12.4729 8.414C12.8742 8.806 13.0749 9.282 13.0749 9.842V11.97C13.0749 12.5207 12.8742 12.9967 12.4729 13.398C12.0716 13.7993 11.5909 14 11.0309 14H5.22091ZM16.856 14C16.2867 14 15.7967 13.7993 15.386 13.398C14.9847 12.9873 14.784 12.4973 14.784 11.928V5.992C14.784 5.42267 14.9847 4.93733 15.386 4.536C15.7967 4.12533 16.2867 3.92 16.856 3.92H22.778C23.3473 3.92 23.8373 4.12533 24.248 4.536C24.6587 4.93733 24.864 5.42267 24.864 5.992V6.944H22.666V6.566C22.666 6.258 22.666 6.104 22.666 6.104C22.666 6.104 22.512 6.104 22.204 6.104H17.416C17.108 6.104 16.954 6.104 16.954 6.104C16.954 6.104 16.954 6.258 16.954 6.566V11.354C16.954 11.662 16.954 11.816 16.954 11.816C16.954 11.816 17.108 11.816 17.416 11.816H22.204C22.512 11.816 22.666 11.816 22.666 11.816C22.666 11.816 22.666 11.662 22.666 11.354V10.304H20.482V8.12H24.864V11.928C24.864 12.4973 24.6587 12.9873 24.248 13.398C23.8373 13.7993 23.3473 14 22.778 14H16.856Z" fill="#FDE021"/>
</svg>
