<svg width="19" height="10" viewBox="0 0 19 10" fill="none" xmlns="http://www.w3.org/2000/svg">
<path d="M16.4282 0.251953H0.669485C0.491926 0.251953 0.32164 0.323436 0.196087 0.450675C0.0705347 0.577914 0 0.750488 0 0.930432V9.07218C0 9.25212 0.0705347 9.42469 0.196087 9.55193C0.32164 9.67917 0.491926 9.75066 0.669485 9.75066L16.4282 9.75065C16.6057 9.75065 16.776 9.67917 16.9016 9.55193C17.0271 9.42469 17.0977 9.25212 17.0977 9.07218V0.930432C17.0977 0.750488 17.0271 0.577914 16.9016 0.450675C16.776 0.323436 16.6057 0.251953 16.4282 0.251953Z" fill="#FDE021"/>
<path d="M19.0013 3.09961H17.1016V6.89909H19.0013V3.09961Z" fill="#FDE021"/>
</svg>