<svg width="59" height="71" viewBox="0 0 59 71" fill="none" xmlns="http://www.w3.org/2000/svg">
<path fill-rule="evenodd" clip-rule="evenodd" d="M0 17.75L29.499 0L59 17.75V53.25L29.499 71L0 53.25V17.75ZM38.2017 41.3393C36.626 42.8143 35.6019 45.1179 35.3938 48.0788C41.684 51.2696 47.175 47.966 47.6704 40.7037C46.3692 40.0147 44.9488 39.6039 43.4929 39.4955C44.1735 42.1592 43.3326 45.0702 40.9618 47.1482C39.1321 45.5431 38.2121 43.4434 38.2017 41.3393ZM29.499 67.9003V35.4978L56.4314 19.2966L29.499 3.09318V35.4978L2.57065 19.2988V51.6991L29.499 67.9003ZM20.763 41.3068C22.3595 42.7796 23.4002 45.0941 23.6084 48.0788C17.3181 51.2696 11.8271 47.9638 11.3317 40.6908C12.6225 40.0138 14.0286 39.6084 15.4697 39.4977C14.7891 42.1593 15.6321 45.0702 18.0008 47.1483C19.8409 45.5344 20.763 43.4217 20.763 41.3068Z" fill="#627482"/>
</svg>

