<svg width="14" height="14" viewBox="0 0 14 14" fill="none" xmlns="http://www.w3.org/2000/svg">
<path fill-rule="evenodd" clip-rule="evenodd" d="M7 1C3.68629 1 1 3.68629 1 7C1 10.3137 3.68629 13 7 13C10.3137 13 13 10.3137 13 7C13 3.68629 10.3137 1 7 1ZM7 2.8C9.31960 2.8 11.2 4.68040 11.2 7C11.2 9.31960 9.31960 11.2 7 11.2C4.68040 11.2 2.8 9.31960 2.8 7C2.8 4.68040 4.68040 2.8 7 2.8Z" fill="#FDE021"/>
<path d="M6.3 4C6.3 3.61340 6.61340 3.3 7 3.3C7.38660 3.3 7.7 3.61340 7.7 4V6.8H10.1C10.4866 6.8 10.8 7.11340 10.8 7.5C10.8 7.88660 10.4866 8.2 10.1 8.2H7C6.61340 8.2 6.3 7.88660 6.3 7.5V4Z" fill="#FDE021"/>
</svg>
