<svg width="28" height="21" viewBox="0 0 28 21" fill="none" xmlns="http://www.w3.org/2000/svg">
<path d="M13.2905 3.54928L14.7262 2.11362C15.2604 1.57061 15.8969 1.13874 16.5988 0.84294C17.3008 0.547136 18.0544 0.393244 18.8162 0.390143C19.5779 0.387041 20.3327 0.53479 21.0371 0.824869C21.7415 1.11495 22.3814 1.54161 22.9201 2.08025C23.4587 2.6189 23.8854 3.25886 24.1755 3.96322C24.4655 4.66758 24.6133 5.42241 24.6102 6.18416C24.6071 6.94591 24.4532 7.69951 24.1574 8.40148C23.8616 9.10346 23.4297 9.73992 22.8867 10.2742L21.451 11.7098L20.0911 10.3499L21.5268 8.91423C21.884 8.55699 22.1674 8.13288 22.3607 7.66613C22.5541 7.19937 22.6536 6.6991 22.6536 6.19389C22.6536 5.68868 22.5541 5.18841 22.3607 4.72165C22.1674 4.25489 21.884 3.83079 21.5268 3.47355C21.1695 3.11631 20.7454 2.83293 20.2787 2.63959C19.8119 2.44626 19.3116 2.34675 18.8064 2.34675C18.3012 2.34675 17.801 2.44626 17.3342 2.63959C16.8674 2.83293 16.4433 3.11631 16.0861 3.47355L14.6504 4.90921L13.2905 3.54928Z" fill="#627482"/>
<path d="M16.2271 16.9322L14.7914 18.3678C14.2572 18.9108 13.6207 19.3427 12.9187 19.6385C12.2168 19.9343 11.4632 20.0882 10.7014 20.0913C9.93967 20.0944 9.18484 19.9467 8.48048 19.6566C7.77611 19.3665 7.13615 18.9398 6.59751 18.4012C6.05887 17.8625 5.6322 17.2226 5.34213 16.5182C5.05205 15.8139 4.9043 15.059 4.9074 14.2973C4.9105 13.5355 5.06439 12.7819 5.3602 12.08C5.656 11.378 6.08786 10.7415 6.63088 10.2073L8.06654 8.77162L9.42647 10.1315L7.99081 11.5672C7.63357 11.9245 7.35019 12.3486 7.15685 12.8153C6.96351 13.2821 6.864 13.7823 6.864 14.2876C6.864 14.7928 6.96351 15.293 7.15685 15.7598C7.35019 16.2266 7.63357 16.6507 7.99081 17.0079C8.34805 17.3651 8.77215 17.6485 9.23891 17.8419C9.70567 18.0352 10.2059 18.1347 10.7111 18.1347C11.2164 18.1347 11.7166 18.0352 12.1834 17.8419C12.6501 17.6485 13.0742 17.3651 13.4315 17.0079L14.8672 15.5722L16.2271 16.9322Z" fill="#627482"/>
<path d="M18.6596 15.4814L20 14.1412L10.3394 4.48145L9 5.82168L18.6596 15.4814Z" fill="#627482"/>
</svg>
