<svg width="21" height="13" viewBox="0 0 21 13" fill="none" xmlns="http://www.w3.org/2000/svg">
<path d="M7.22857 12V10.4286H5.5C3.33031 10.4286 1.57143 8.66969 1.57143 6.5C1.57143 4.33031 3.33031 2.57143 5.5 2.57143H7.22857V1H5.5C2.46243 1 0 3.46243 0 6.5C0 9.53757 2.46243 12 5.5 12H7.22857Z" fill="#627482"/>
<path d="M9.11429 13H11V0H9.11429V13Z" fill="#627482"/>
<path d="M14.6143 12H12.8857V10.4286H14.6143C16.784 10.4286 18.5429 8.66969 18.5429 6.5C18.5429 4.33031 16.784 2.57143 14.6143 2.57143H12.8857V1H14.6143C17.6519 1 20.1143 3.46243 20.1143 6.5C20.1143 9.53757 17.6519 12 14.6143 12Z" fill="#627482"/>
</svg>
