<svg width="30" height="32" viewBox="0 0 30 32" fill="none" xmlns="http://www.w3.org/2000/svg">
<path d="M0 26C0 24.8954 0.895431 24 2 24H4C5.10457 24 6 24.8954 6 26V30C6 31.1046 5.10457 32 4 32H2C0.89543 32 0 31.1046 0 30V26Z" fill="#FDE021"/>
<path d="M8 18C8 16.8954 8.89543 16 10 16H12C13.1046 16 14 16.8954 14 18V30C14 31.1046 13.1046 32 12 32H10C8.89543 32 8 31.1046 8 30V18Z" fill="#FDE021"/>
<path d="M16 10C16 8.89543 16.8954 8 18 8H20C21.1046 8 22 8.89543 22 10V30C22 31.1046 21.1046 32 20 32H18C16.8954 32 16 31.1046 16 30V10Z" fill="#FDE021"/>
<path d="M24 2C24 0.895431 24.8954 0 26 0H28C29.1046 0 30 0.895431 30 2V30C30 31.1046 29.1046 32 28 32H26C24.8954 32 24 31.1046 24 30V2Z" fill="#FDE021"/>
</svg>