<svg width="14" height="22" viewBox="0 0 14 22" fill="none" xmlns="http://www.w3.org/2000/svg">
<path d="M3 9.25518V4.00008C3 2.93919 3.42143 1.92176 4.17157 1.1716C4.92172 0.421436 5.93913 0 7 0C8.06087 0 9.07828 0.421436 9.82843 1.1716C10.5786 1.92176 11 2.93919 11 4.00008V9.25518C12.223 10.1068 13.1423 11.3265 13.6241 12.7367C14.1059 14.147 14.125 15.6742 13.6788 17.0961C13.2325 18.518 12.3441 19.7604 11.1429 20.6424C9.94163 21.5244 8.49026 22 7 22C5.50974 22 4.05837 21.5244 2.85714 20.6424C1.6559 19.7604 0.767498 18.518 0.32123 17.0961C-0.125038 15.6742 -0.105877 14.147 0.375923 12.7367C0.857723 11.3265 1.77702 10.1068 3 9.25518ZM3 15.0003C3 16.0612 3.42143 17.0786 4.17157 17.8288C4.92172 18.5789 5.93913 19.0004 7 19.0004C8.06087 19.0004 9.07828 18.5789 9.82843 17.8288C10.5786 17.0786 11 16.0612 11 15.0003H3Z" fill="#FDE021"/>
</svg>
