<svg width="20" height="16" viewBox="0 0 20 16" fill="none" xmlns="http://www.w3.org/2000/svg">
<path d="M0 3.5529C2.82855 1.24919 6.35972 -0.00539646 10 1.74488e-05C13.7887 1.74488e-05 17.2679 1.33068 20 3.5529L18.3333 5.62668C15.9761 3.70715 13.0335 2.66192 10 2.66668C6.8435 2.66668 3.94341 3.77601 1.66667 5.62668L0 3.5529ZM2.77719 7.01068C4.82016 5.34668 7.37068 4.44049 10 4.44446C12.7356 4.44446 15.2485 5.40534 17.2228 7.00979L15.5561 9.08445C13.9845 7.80464 12.0225 7.10781 10 7.11112C7.89567 7.11112 5.96286 7.85068 4.44386 9.08445L2.77719 7.00979V7.01068ZM5.55526 10.4685C6.81242 9.44436 8.38194 8.88659 10 8.8889C11.6835 8.8889 13.2299 9.48001 14.4447 10.4676L12.7781 12.5422C11.9922 11.9024 11.0113 11.554 10 11.5556C8.98875 11.554 8.00778 11.9024 7.22193 12.5422L5.55526 10.4676V10.4685ZM8.33333 13.9262C8.80464 13.542 9.39319 13.3326 10 13.3333C10.6313 13.3333 11.2113 13.5556 11.6667 13.9253L10 16L8.33333 13.9262Z" fill="#FFE500"/>
</svg>
